#tb 0: 1/1000
0,        118,        118,        0,   460800, 0x54aedafe
0,        152,        152,        0,   460800, 0xb7aa8b56
0,        177,        177,        0,   460800, 0x283ea3b5
0,        202,        202,        0,   460800, 0x283ea3b5
0,        235,        235,        0,   460800, 0x10e577de
0,        269,        269,        0,   460800, 0x4e091ee2
0,        302,        302,        0,   460800, 0x2ea88828
0,        335,        335,        0,   460800, 0x4b7f4df0
0,        369,        369,        0,   460800, 0xb30eb322
